<?xml version="1.0" encoding="utf-8"?>
<!-- Generator: Adobe Illustrator 25.0.1, SVG Export Plug-In . SVG Version: 6.00 Build 0)  -->
<svg version="1.0" id="katman_1" xmlns="http://www.w3.org/2000/svg" xmlns:xlink="http://www.w3.org/1999/xlink" x="0px" y="0px"
	 viewBox="0 0 800 600" style="enable-background:new 0 0 800 600;" xml:space="preserve">
<style type="text/css">
	.st0{fill-rule:evenodd;clip-rule:evenodd;fill:#2A363E;}
	.st1{fill-rule:evenodd;clip-rule:evenodd;fill:#0B151A;}
	.st2{fill-rule:evenodd;clip-rule:evenodd;fill:#CC7929;}
	.st3{fill-rule:evenodd;clip-rule:evenodd;fill:#D89C28;}
	.st4{fill-rule:evenodd;clip-rule:evenodd;fill:#B55E27;}
	.st5{fill-rule:evenodd;clip-rule:evenodd;fill:#FFFFFF;}
	.st6{fill-rule:evenodd;clip-rule:evenodd;fill:#E0DEDF;}
	.st7{fill-rule:evenodd;clip-rule:evenodd;fill:#EEA293;}
	.st8{fill-rule:evenodd;clip-rule:evenodd;fill:#111D24;}
	.st9{fill-rule:evenodd;clip-rule:evenodd;fill:#33464C;}
	.st10{fill-rule:evenodd;clip-rule:evenodd;fill:#D6725E;}
	.st11{fill-rule:evenodd;clip-rule:evenodd;}
	.st12{fill-rule:evenodd;clip-rule:evenodd;fill:url(#SVGID_1_);}
	.st13{fill:#FFFFFF;}
	.st14{fill-rule:evenodd;clip-rule:evenodd;fill:url(#SVGID_2_);}
	.st15{fill-rule:evenodd;clip-rule:evenodd;fill:#1A1A1A;}
	.st16{fill-rule:evenodd;clip-rule:evenodd;fill:url(#SVGID_3_);}
	.st17{fill:#373A36;}
</style>
<g>
	<g>
		<path class="st0" d="M113,227.3c0.6,11,0.4,18.3-1.3,25.7c-5.1,22.1-8,17.5,2.5,37l2.5,8.2l1.6,4.8l-1.2,10.5l14.6-0.6l5,7
			l25.7,8.6l2.2-3.5l8.4-0.9l13.3,0.3h1.5l2.5-3.2l5,5.1l2.5-9.8l12.1,1.6l-8.8-14.6v-7.9l-0.3-7.3l-1.6-5.1l-11-11h0.3l6.1,5.9
			c1.8-6.6,2-13.6,0.6-20.3c-2.8-11.9-2.1-14.9,0-29.8c-10.7,15.3-7.2,25.3-13.7,41.7l-0.8-0.4l-25.7,0.6l-16.5,4.2
			c2-1.4,0.6-6.2-2-12.7C131.9,249.7,124.5,232.8,113,227.3z"/>
		<path class="st1" d="M107.6,274.7l0.2,2.8l0.3,0.9c5.4,9.9,6.9,14.2,10.2,24.4l-1.2,10.5l10.5-0.5c-2.7-6.6-3.4-8.3,1.7-13.2
			l2.8,0.3c5.7,0.7,1.8,6-1.1,8.4l5.1,2.2l11.5,3.6l-7.7-4.3c8.9,0.4,10.3,0.9,19.1,3l1.9,4.1l-0.2-3.6l0.9-5.4l-9.8,0.6l-12.4-2.4
			l0.6-2.9l0.3-8.5l-4.4-0.5c-4.7,2.3-4.4,3.1-9,0.6l5.4-8.2l-3.9,3.3l-3.6,2.2c-10.4-5.1-10.8-8.2-16.4-18.4L107.6,274.7
			L107.6,274.7L107.6,274.7z M164.2,309c1.1,6.5,0.6,9.5,8.4,11.3c-5.9,1.6-8.2,2-11.2,5.5C161.2,320.5,161.4,313.4,164.2,309
			L164.2,309L164.2,309z M195.4,292.8c-5.3,4.4-9.1,6.4-13.9,13.3l-2.5,1.8l-1,0.3l0.8-3.1l0.7-4.3l0.2-0.2l0.2-3.9
			C185.2,302.2,187.7,293.4,195.4,292.8L195.4,292.8L195.4,292.8z M172.7,301.4l-1.5,3.5c-2.3,3.1-4.1,2.3-7.5,0.8l-0.9-0.6h-0.6
			l-2.8-0.2c-9-6.7-8.7-6.8-19.2-11.1c11.4,1.6,15,6.5,22.2,8l1.6-2.7v0.5C166,305.1,168.5,304.6,172.7,301.4z"/>
		<path class="st2" d="M119,315c11.5-8,14-3.2,25.4,1.6l-6.8,0.9c12.3,3.1,14.8,4.4,25.4,11.1l6.8,6.4l7.1,3.2h9.9l1.3-0.9l5.5-6.4
			c1.4-5.9,2.2-10.6,4.3-16.2l-3.7,1.6c8.1-7.7,9.5-4.4,18,2.2l1.3,9l-1.2,6l-3.4,6l-2.2,0.9v7.3l-5.3,5.4l-3.1,2.2l1.9,6l-1.2,4.8
			l-8.1,8.6h-3.7l-11.7-1.6l-7.5,0.7l-7.7,3.8l-7.1-1.6l-3.4-4.8l-4-11.8l-11.7-2.2l-14.3-8.1C109.3,334.5,108.4,327.5,119,315z"/>
		<path class="st3" d="M208.3,330.8l0.1-4l-0.1-2.9l-1.6,2.8c-1.1-8.1-0.6-13.1-8.2-6.3l2.5-0.9c-2.3,2.2-4.3,4.6-6.1,7.2l-0.3-0.9
			l3.9-12.4c3.4-1,5.1-0.8,6.9,0.8C209.9,318.4,211.1,325.2,208.3,330.8L208.3,330.8L208.3,330.8z M144.8,316.4
			c-9.5-4.4-14.2-4-20.9,5.1c4.2-2.2,4.2-2.1,8.7-3.2c-10.4,6.6-5.3,9.6-4.5,20.6c1.3-9.8-2.3-9.9,2.8-16.4c3-3.8,6.7-3.5,11.1-3.5
			l-3.1-1.4L144.8,316.4L144.8,316.4z M173.8,358.4c5.2-1.6,7.2-1.5,11.5-0.6c3.7,0.8,7,1.7,10.8,2.2l0.2,0.1c0.8,1.6,0.8,3.4,0.1,5
			c-4,2.5-5,2.6-9.6,3.3c3.6-2,4-1.9,6.4-4.9l-0.5-1.4c-2.5-0.6-5-1.5-7.3-2.6C180.5,358,178.8,358.2,173.8,358.4L173.8,358.4
			L173.8,358.4z M143.7,320.2c9.4,3.5,10.1,3.3,14.7,7.4c3.9,3.5,11.5,10.7,5.3,14.8c-0.5,0.2-0.7,0.4-0.9,0.5
			c-6.7-0.6-6.9-8.3-7.4-13.6l-0.8,2.7C150.1,324.1,151.6,326.3,143.7,320.2L143.7,320.2z M201.8,328.6c-3.4,6.3-2.1,10.1-5.3,15.5
			l1.9-0.8c-3.5,5.2-3.7,5.2-9.8,6c4.2,0.8,8,2.5,11.8-0.4c2.7-2.1,3.3-4.3,1.9-8.9C200.4,334.2,200.5,334.5,201.8,328.6
			L201.8,328.6z"/>
		<path class="st4" d="M118.3,315c0.7-0.5,8.1-3,8.7-3.4l-7.3,11.4c-2.8,9.3-4.2,13.3,5.7,23.2c0,0,7.6,3.6,13.6,4.4
			c0-4.3,1-8.6,2.8-12.5c-0.2-3.2,1.7-5.9-0.1-11.8c2.4,4.9,1.8,2.6,3.2,6.1c2,5.1,1.5,2.1,5.4,14.5c6.2,7.1,11.2,5.5,18.4,0.8
			l-2.3,3.5c5.5-4.6,7.5-5.1,3.6-11.3l-3.7-4.8l6,1.2l4.1,1.8h9.9l1.2-0.3c-4.2,5.1-6.9,7.7-0.5,11.2c3.7,2.1,8.3,3,12,1.5
			s4.6-3.7,6.3-8.3c-1.4-6.5-4.1-9.3-1.5-15.1c2.6,8.7,4.6,7.3,8.9,2.1l-0.8,4.1l-2.7,7.1l-2.6,2.4l-0.2,4.8v0.1l-5.2,5.3l-3.1,2.2
			l1.9,6l-1.2,4.8l-8.1,8.6h-3.7l-11.8-1.6l-7.4,0.6l-7.7,3.8l-7.2-1.6l-3.4-4.8l-4-11.8l-11-2.3l-16.7-9.4
			c-5.9-13.2-10.3-14.8-2.9-28.3L118.3,315L118.3,315L118.3,315z M184.7,361.9c-3.8,0.6-9.1,0.7-11.8,3.6c0,3.5,8.8,1.4,10.9,1.2
			l-2.2,3c5.9,0,13.5-1.1,17-6.5v-4.3l-0.3-1.1c-6.6,0.3-19.1-3.1-23.7-0.2c-5.9,3.8-12.9,5.4-19.8,4.7l-3.9-0.5
			c2.1,6.5,2.6,7.5,9,9.4l-1.5-2.1l3,0.5c1.9,0.3,6.2-2.9,9.3-5.1C175.7,360.9,178.8,361.3,184.7,361.9z"/>
		<path class="st5" d="M141.5,294.6l-1,6l1.1,5.2c6.8,3,12.5,5.4,18.9,0.3C151.7,297,149,292.9,141.5,294.6L141.5,294.6z
			 M182.1,303.8c6.1-6.8,10.4-12,17.6-9.5l-0.2,6.2l-0.1,3.8l-6.4,1.9l-4.8,0.5l-3.6-0.3L182.1,303.8z"/>
		<path class="st6" d="M155.7,308.1c-9.1-1.5-14.5-12.3-5.3-11.5l-3.8-0.7l-1.6-0.1l-3.4,0.1C138.3,307.4,145.3,309.1,155.7,308.1
			L155.7,308.1z M198.9,302.4l-0.2,0.4c-0.5,1-1,1.8-1.3,2.4l-4.2,1.3l-4.8,0.5l-3.5-0.3l-2.6-2.6c5.4-3.1,3.6-5.9,9.5-7.5
			c-1.4,2.1-2.6,4.2-3.6,6.5C186.7,305.6,190.3,307.2,198.9,302.4z"/>
		<path class="st7" d="M115.9,232.8c2.9,15.3-1.7,23.7-1.4,30.9c0.4,9.8-1.1,14.8,10.6,24.2l0.2-5.5h0.8l0.5,0.5
			C129.8,263,124.7,240.6,115.9,232.8L115.9,232.8L115.9,232.8z M193.9,276.9l4.8,5.6c12.4-12.3,10.2-9.7,3.9-25.7
			c-3.4-8.6-6.8-19.5-7-28.1l-0.7,0.5v0.8c0.1,0.4,0,0.8-0.1,1.1l-1.5,8.5v3.6l1.1,6.6c0.3,1.1,0.5,2.3,0.4,3.5l1.2,6.6
			c0.2,1,0.3,1.9,0.3,2.9v4c0,1.2-0.1,2.3-0.3,3.5L193.9,276.9z"/>
		<path class="st8" d="M166.3,331.8l-2.1-2.8l0.8-3.6l0.4-0.2l5.1-1L182,325h0.5l8.4-2l0.6-1.1c0.4,0,0.8,0.2,0.9,0.6l1.9,2.6
			c0,0.3-0.1,0.5-0.2,0.7l-0.7,1.8c-0.2,0.3-0.4,0.7-0.5,1.1l-1.1,2.1l-0.3,0.2l-4.6-0.2c-0.6-0.1-1.3-0.2-1.9-0.2h-12
			c-0.5,0-0.9,0.1-1.3,0.1L166.3,331.8z"/>
		<path class="st9" d="M171.9,271.6c8.6,0.4,10.7,0.2,13.6,3.3c1.5,1.6,3.1,4,6,7.8c6.2,6-4.2,7.5-10.3,9.2c5-3.8,6.7-4.6,2.2-13.3
			l1.9,0.6C181.9,272.7,178.4,273,171.9,271.6L171.9,271.6L171.9,271.6z M126.4,244.5c4.7,7.9,7.4,12.6,10.3,21.5
			c1.8,5.4,3,4.9-1.1,12.2c5.3-1.4,4.7-0.5,8.2-4.3c11.6-2.5,13.1-1,23.1,2.7c-6.7-1.1-13.2-2.9-19.8-0.6c-3.6,3.3-4.8,4.3-9.1,6.4
			l0.3-1.7c-1.9,0.7-3.9,1.3-5.9,1.7C137.5,268,131.2,262.5,126.4,244.5L126.4,244.5L126.4,244.5z M200.1,306.1
			c-6.3,2.1-7.8,2.7-14.6,2.1c4.5,1.5,3.7,1.3,8.4,1.5l-2.1,1.2c4.3,1.1,4.7,0.7,8.6-0.4l4.3,1.5L200.1,306.1L200.1,306.1
			L200.1,306.1z M177.4,295c0.8,4.1,2.1,8.1,0.5,12l-3.8,0.4C177.5,303.1,177.4,300.5,177.4,295L177.4,295L177.4,295z M166,303.3
			c6.6,0.6,6.4-2.5,5-8.7c-0.8,5.3-0.2,5.9-5.4,6.6L166,303.3L166,303.3L166,303.3z M160.2,296v-0.5c-2-10.3-15-9.4-23.2-10.2
			C147.4,289.8,150.1,287.7,160.2,296L160.2,296L160.2,296z M180.4,309.8l4.5,5.4c3.1,5.4,4.5,6-1.6,7c-5,0-10.4-0.1-15.3,0.3
			c5.1-1.7,8.7-2.2,13.5-3.5l0.6-3.2L180.4,309.8z"/>
		<path class="st10" d="M115.6,253.3c-0.2,20.3-6,21.5,9.6,34.5l0.2-5.5l1.6-0.1c1.7-3.4,1.6-20.8-4.4-36.2
			C125.7,289.4,116.6,277.7,115.6,253.3L115.6,253.3L115.6,253.3z M195.9,270.6c0.6,0.6,1.6,0.2,3.5-1.9c4.2-4.5,2.1-9,2.5-15.8
			c7.1,12.9,9.2,17.3-3.2,29.5l-4.8-5.6l0,0L195.9,270.6z"/>
		<path class="st11" d="M115.7,253.9c-0.9,16.3-1.7,25.2,8.1,30.7c-2.1-5.4-3.3-5.8-1-11.8c0.6,3.1,2.2,6,4.6,8.2
			c0.5-2.4,0.9-5.2,0.3-11.8c1.7,3.7,3.8,9.7,2.1,16.1l-3-0.9l0.3,5.5C108.6,284.3,111.6,268.9,115.7,253.9z"/>
		<path class="st2" d="M162.8,292.8c-1.7-3.5-3.5-5-1.8-5.7c2.4-1,6.9-0.9,6.4,3c0,0.2-0.1,0.5-0.1,0.7
			C166.5,293.4,164.7,296.5,162.8,292.8z"/>
		<path class="st2" d="M179.8,291.6c1.2-3.4,1.8-4.1,0.1-4.8c-2.6-1-6-1.8-5,2.1c0.1,0.5,0.2,0.5,0.2,0.7
			C176.3,292.3,178.5,295.4,179.8,291.6z"/>
		<path class="st11" d="M163.2,286.5c-4.2,0.3-3.3,2.3-1.7,4.9c2.6,4.4,3.4,4.4,5.7,0.4c-2.8,2.4-3.8,1-5.2-1.5
			C161,288.6,160.7,288,163.2,286.5z"/>
		<path class="st11" d="M177.4,285.9c-4.4,0-3.9,2.1-2.3,4.8c2.6,4.4,3.3,4.3,5.2,0.3c-2.5,2.6-3.3,1.1-4.7-1.3
			C174.5,287.8,174.8,286.8,177.4,285.9z"/>
		<g>
			
				<radialGradient id="SVGID_1_" cx="242.2295" cy="302.5462" r="4.542" gradientTransform="matrix(0.97 0 0 -0.99 -44.1 598.34)" gradientUnits="userSpaceOnUse">
				<stop  offset="0" style="stop-color:#F16623"/>
				<stop  offset="1" style="stop-color:#000000"/>
			</radialGradient>
			<path class="st12" d="M186.2,299.2c0.1,2.6,2.4,4.7,5,4.6c2.6-0.1,4.7-2.4,4.6-5c0-1.7-0.8-3.2-2.2-4.1
				C190,295.9,188.9,296.8,186.2,299.2z"/>
			<ellipse cx="190.9" cy="299" rx="2.5" ry="2.6"/>
			<ellipse class="st13" cx="193.1" cy="297.3" rx="1.4" ry="1.4"/>
			<ellipse class="st13" cx="188.4" cy="299.4" rx="1.2" ry="1.2"/>
		</g>
		<g>
			
				<radialGradient id="SVGID_2_" cx="200.8196" cy="303.4286" r="5.7878" gradientTransform="matrix(1 0 0 -1 -20.96 604.34)" gradientUnits="userSpaceOnUse">
				<stop  offset="0" style="stop-color:#F16623"/>
				<stop  offset="1" style="stop-color:#000000"/>
			</radialGradient>
			<path class="st14" d="M157.3,300.5c-0.3,3.4-3.2,5.9-6.6,5.6c-3.2-0.3-5.6-2.9-5.6-6.1c0-2.1,1-4.1,2.8-5.3
				C152.5,296.3,153.9,297.4,157.3,300.5z"/>
			<ellipse cx="151.4" cy="300.2" rx="3.2" ry="3.3"/>
			<ellipse class="st13" cx="148.6" cy="298.1" rx="1.8" ry="1.8"/>
			<ellipse class="st13" cx="154.5" cy="300.7" rx="1.5" ry="1.5"/>
		</g>
		<path class="st11" d="M116.4,311.5c-5.5,14.3-11.7,22,3.2,39c10.7,2.6,12.7,7.9,24.1,10.8c1.9,4.7,3.5,5.6,5.1,11.3l1.7,2.9
			c2.5,2.1,7.9,3,11.2,3h1.1c4.4-2.4,7-3.7,12.1-4.3c5.8,1.8,6.6,2.4,12.2,2.4c3.5,0,11.1-6.7,13.8-9.7c2.4-2.4,0-8-1.2-10.5
			l6.6-5.2l1.2-3.2c-0.2-1.9,0.1-1.3-0.1-3.2c7.6-7.8,7.8-23.4,1.9-32.4c-2.2-3.3-4.6-6.6-7.2-9.9c0.6-5.3,2.3-13-0.8-17.6
			c10.8-16.2,10.2-18.4,1.9-33.3c-3.8-8.3-4-16.7-5-25.5c-0.5-4.5-2.4-4.7-6,0.6c-9,13.4-5.8,27.3-13.3,41
			c-15.4-1.5-20.7-0.5-35.6,1.6c-8.4-11-10.1-36.3-29.9-43.4c-3.9-1.4-6.5-1.8-3.9,4.3l0.3,0.8c4.4,20.6-1.2,21.3-4.4,39.9
			c-0.8,4.6,0.4,8.3,5,17.1C116.4,297.9,117.7,299.7,116.4,311.5L116.4,311.5L116.4,311.5z M145.4,351c1.9,2.4,5.5,8.6,9,10
			c1.4,0.6,3,0.8,4.5,0.5c0.1,0.2,11.9-6,18.8-6.9c2.8-0.4,16,4.8,19.4,4.8c0.5,2.1,0.6,4.3,0.3,6.5c-3,2-7.5,5.8-10.5,7
			c-1.3,0-6.3-1-8.4-1.3l-0.1-0.5l3.5-2.9c-7.2,1.2-14.2,3.6-20.8,7c-4.9,0.6-7.3-1.6-10.2-5.1c-2.8-8.7-4-11-10.7-17.1l2,4.3
			c-9.2-4.8-12-5.6-18.2-8.5c-2.4-0.2-8.3-10.3-8.8-13.2c-1.6-9.8-0.3-11.2,4.5-18.3c6.2-4.2,6-5.5,13.4-6.2
			c-5.8-1.5-8.1-1.6-13.6,1.1c2.2-11.4-0.8-16.4-5.9-26.3v-0.8c-9.5-18.2,6.4-29.7,0-53.9c8.6,6.9,11.2,20.1,13.8,34.1
			c1-9.3-0.5-18.6-4.3-27.1c8.2,11,9.3,22.5,13.6,28.2c2.3,3.1,2.2,7.8-1.7,13.2c4.1-0.8,6-2.9,7.8-6.3c10.6-3,14.4-0.4,25,2.7
			l-5.9-4.3c10.7-1.2,14.4-2.3,24.8,1.4c3.7,4.2,7.3,9.1,11.3,12.8c1.1,2.3,0.8,3.7,0.5,6.2c-4.5-1.7-10.1,4.3-17,11.3l-1.7-5.9
			c-0.8,5.6,1.7,8.1-2.7,10c1.5,0.4,3,0.3,4.4-0.4c10.6,1.6,9.2,1.2,19.2-1.6c2.1,3,4,5.9,5.9,8.8c3.5,5.4,4.7,22.9-0.4,27.4
			c-2.4-4.7-3.7-7.4-3.7-12.8c-2.8,5.8,0.2,9.8,1.4,15.5c-2.1,6.6-2.8,7.6-9,11.1c-5.5-1-10.3-3.5-15.4-5.7
			c-0.1-2.4-0.2-4.9-0.3-7.3c5.8-2.1,10.8-6.1,14.1-11.3c2.2-3.3,2.1-5.2,0.7-7.8c-1.8-3.5-6.7-7.5-9.5-10.3
			c2.6,4.7,7.4,9.1,1.5,9.7c-5.2,0.6-7.5,0.3-13.6,0.1c-5.1-0.1-10.4,0.5-10.8,4.3l-3.7-2c5.6,7.4,9.6,13.2,18.1,17.1
			c0.2,7.8-0.6,7.2-7,11.6c-7.6,3.8-9.8,6.3-16.5,1.9c-4.5-5.9-6.1-7.7-6.2-10.9c0-2.1-0.3-3.8-0.3-7.2l-0.3-3.4l-2.9-7
			c0.4,4,1.1,6.2,0.9,8.6c-1,5.9-0.6,10.3,0.4,13.1c0.1,0.3,0.2,0.6,0.4,0.9C145,350.5,145.4,351,145.4,351L145.4,351L145.4,351z
			 M195.9,238.1c1.1,24.6,17.9,25.2,4,41.8c-1.1-1.2-3.6-3.4-2.6-5.8C203.5,260.8,193.6,260.1,195.9,238.1
			C195.9,238.1,195.9,238.1,195.9,238.1z M193.8,232.3c-5.5,16,3.7,31.6-0.4,40.6c-3.5-2.5-5.5-4.2-10.2-5.1
			C189.3,258.4,187.8,239.4,193.8,232.3L193.8,232.3L193.8,232.3z M131.5,297.6c5-8,13.2-5.9,19.4-3c5.3,2.5,7.4,5.1,9.7,9.5h0.5
			c2.5-1.6,2.1-3.1,2.5-6c0.9,1.9,1.3,4,1.1,6c3.8,2.6,5.3,2.9,7.5,2.2c-3.1,4.4-6.2-2.1-9.9,4.4l-1.5,8.1l-0.8-4.6l0.2-2.5l0.3-2.7
			c-4.1,2.6-12.8,1.6-17.4-1c-3.7-2.1-3.9-4.8-3.5-11.9C136.1,295.4,134.8,296.5,131.5,297.6L131.5,297.6z M141.7,296.9
			c6.1-1,13.2,0.1,17.2,9.4c-5.3,3.6-20.2,3.5-17.3-8.9L141.7,296.9z M186,362.1c-1.7-0.1-3.1-0.3-4.8-0.3l1.2,0.7
			c0,1.4-1.5,1.7-3,1.7c-2.1,0-4.2,0.2-6.3,0.7l2.2-1.6c-0.2,0.1-0.5,0.1-0.7,0.1c-2,0.6-3.9,1.4-5.8,2.3
			C172.9,360.4,180.2,358.9,186,362.1L186,362.1L186,362.1z M191.5,323c2.4,1.7,0.1,6.8-0.9,7l0.5-2c-5.4,1-12.6,1.3-18,0.1
			c-1.2-0.1-6.6-1.5-6.6,1.1c0,0.4,0,0.8,0.1,1.2l-1.1-1.2c1.1-3.2,3.3-4,6.8-4c5.5,0,8.8,0.8,13.6,0.4
			C188.5,325.4,190.3,325.6,191.5,323L191.5,323L191.5,323z M185.3,304.4c2.8-6.9,7.1-9.9,11.5-9.2c2.1,1.3,2.6,7.8-1.1,9.2
			C188.7,306.8,186.7,305.9,185.3,304.4L185.3,304.4z"/>
		<g id="Magnify">
			<path class="st11" d="M132.5,340l10.3-0.9c2.6,0.5,5.3,5.6,1.4,8l-11.2,0.1L132.5,340L132.5,340L132.5,340z M203.3,336.9
				l24.3-2.1c5-0.4,5.2,10.9,1.7,12.2l-24.3,0.6l0.1-0.4v-0.9l-0.5-2.4l-0.1-0.5l-0.1-2.8L203.3,336.9z"/>
			<path class="st15" d="M226.6,335.7l-22.7,2.1l0.7,2.7v0.2l18.5-0.3l-8.6,1.1l14.7,0.2C229.3,338.4,229,336.6,226.6,335.7z"/>
			<g>
				
					<radialGradient id="SVGID_3_" cx="164.3865" cy="258.537" r="28.0129" gradientTransform="matrix(0.97 0 0 -0.99 -44.1 598.34)" gradientUnits="userSpaceOnUse">
					<stop  offset="0" style="stop-color:#FFFFFF"/>
					<stop  offset="1" style="stop-color:#81D1E2"/>
				</radialGradient>
				<path class="st16" d="M108.2,321.3c13.2,2,22.4,14.6,20.5,28.1c-1.7,13.3-13.9,22.8-27.2,21c-0.1,0-0.2,0-0.2,0
					c-13.2-2-22.4-14.6-20.5-28.1c1.7-13.3,13.9-22.8,27.2-21C108.1,321.3,108.2,321.3,108.2,321.3z"/>
				<path class="st11" d="M108.9,316.4c15.9,2.4,26.9,17.5,24.6,33.7c-2.3,16.3-17.1,27.6-33,25.2S73.7,357.9,76,341.6
					S93,314.1,108.9,316.4C108.9,316.4,108.9,316.4,108.9,316.4z M108.1,322.4c-12.7-1.8-24.5,7.1-26.2,19.9c0,0.1,0,0.1,0,0.2
					c-1.9,12.8,6.8,24.8,19.6,26.9c12.7,1.8,24.5-7.1,26.2-19.9c0-0.1,0-0.1,0-0.2C129.6,336.5,120.9,324.5,108.1,322.4z"/>
				<path class="st5" d="M107.8,324.3c11.9,2,20,13.3,18,25.2c-1.6,9.3-8.9,16.5-18.2,18c11.4-4,17.5-16.5,13.5-27.9
					c-2.6-7.5-9.1-13.1-17-14.4c-2-0.3-4-0.3-5.9,0C101.3,324.2,104.6,323.9,107.8,324.3z"/>
				<path class="st15" d="M117.9,366.4c-4.9,3.5-11,5-17,4.1c-13.1-1.9-22.2-14.4-20.3-27.8c0.8-6.1,3.9-11.7,8.7-15.6
					c-5.5,3.9-9.2,10-10.1,16.7c-1.9,13.4,7.2,25.9,20.3,27.8C106,372.5,112.8,370.7,117.9,366.4z"/>
				<path class="st15" d="M108.8,317.6c15.3,2.3,25.9,16.8,23.6,32.4c-1.1,7.8-5.3,14.7-11.6,19.3c5.6-4.6,9.3-11.1,10.3-18.3
					c2.2-15.6-8.4-30.2-23.6-32.5c-7.1-1-14.3,0.7-20.1,4.9C93.4,318.6,101.1,316.4,108.8,317.6z"/>
			</g>
		</g>
	</g>
	<g>
		<path class="st17" d="M305.1,347.3c0,1.7-0.3,3.3-0.9,4.8c-1.1,2.9-3.4,5.2-6.3,6.3c-1.6,0.6-3.3,0.9-4.9,0.9h-9.1v-23.9h9.1
			c1.7,0,3.4,0.3,4.9,0.9c1.4,0.6,2.7,1.4,3.8,2.5c1.1,1.1,1.9,2.4,2.5,3.8C304.8,344.1,305.1,345.7,305.1,347.3z M300.6,347.3
			c0-1.2-0.2-2.4-0.5-3.5c-0.3-1-0.8-1.9-1.5-2.6c-0.7-0.7-1.5-1.3-2.4-1.7c-1-0.4-2.1-0.6-3.2-0.6h-4.7v16.8h4.7
			c1.1,0,2.2-0.2,3.2-0.6c0.9-0.4,1.7-0.9,2.4-1.7c0.7-0.8,1.2-1.7,1.5-2.6C300.4,349.7,300.6,348.5,300.6,347.3z"/>
		<path class="st17" d="M321.9,359.3h-4.5v-23.9h4.5V359.3z"/>
		<path class="st17" d="M346.6,356.1c0.9,0,1.8-0.1,2.6-0.3c0.7-0.2,1.4-0.4,2.1-0.7v-4.3h-3c-0.3,0-0.5-0.1-0.7-0.2
			c-0.2-0.2-0.2-0.4-0.2-0.6v-2.5h7.9v9.7c-0.6,0.4-1.2,0.8-1.9,1.1c-0.7,0.3-1.4,0.6-2.1,0.8c-0.8,0.2-1.6,0.4-2.4,0.5
			c-0.9,0.1-1.8,0.2-2.7,0.2c-1.7,0-3.3-0.3-4.8-0.9c-2.9-1.2-5.2-3.5-6.3-6.4c-0.6-1.6-0.9-3.2-0.9-4.9c0-1.7,0.3-3.4,0.9-4.9
			c1.1-3,3.4-5.3,6.4-6.4c1.6-0.6,3.4-0.9,5.2-0.9c1.7,0,3.5,0.3,5.1,0.9c1.3,0.5,2.6,1.3,3.6,2.2l-1.3,2c-0.2,0.4-0.6,0.6-1,0.6
			c-0.3,0-0.6-0.1-0.8-0.3l-1.1-0.6c-0.4-0.2-0.8-0.4-1.2-0.6c-0.5-0.2-1-0.3-1.5-0.4c-0.6-0.1-1.3-0.2-1.9-0.1
			c-1.1,0-2.2,0.2-3.2,0.6c-0.9,0.4-1.8,1-2.4,1.7c-0.7,0.8-1.2,1.7-1.6,2.7c-0.4,1.1-0.6,2.3-0.6,3.5c0,1.3,0.2,2.5,0.6,3.7
			c0.4,1,1,2,1.7,2.8c0.7,0.7,1.5,1.3,2.5,1.7C344.5,355.8,345.5,356,346.6,356.1z"/>
		<path class="st17" d="M372.8,359.3h-4.5v-23.9h4.5V359.3z"/>
		<path class="st17" d="M403.3,335.4v3.7h-7.2v20.3h-4.4V339h-7.2v-3.7L403.3,335.4L403.3,335.4z"/>
		<path class="st17" d="M433,359.3h-3.4c-0.3,0-0.7-0.1-0.9-0.3c-0.3-0.2-0.5-0.4-0.6-0.7l-1.8-4.9h-9.9l-1.7,4.9
			c-0.1,0.3-0.3,0.5-0.5,0.7c-0.3,0.2-0.6,0.3-0.9,0.3h-3.5l9.4-23.9h4.6L433,359.3z M417.6,350.3h7.6l-2.9-7.9
			c-0.1-0.4-0.3-0.8-0.4-1.2c-0.2-0.5-0.3-1-0.5-1.6c-0.2,0.6-0.3,1.1-0.5,1.6c-0.1,0.5-0.3,0.9-0.4,1.3L417.6,350.3z"/>
		<path class="st17" d="M448.3,355.6h9.6v3.7h-14v-23.9h4.4L448.3,355.6L448.3,355.6z"/>
		<path class="st17" d="M499,335.4v3.5h-10.6v7.1h9v3.5h-9v9.7h-4.5v-23.9H499z"/>
		<path class="st17" d="M533.7,347.3c0,1.7-0.3,3.3-0.9,4.9c-0.6,1.4-1.4,2.8-2.5,3.9c-1.1,1.1-2.4,2-3.8,2.6
			c-3.2,1.2-6.7,1.2-9.9,0c-1.4-0.6-2.7-1.4-3.8-2.6c-1.1-1.1-1.9-2.4-2.5-3.9c-1.2-3.1-1.2-6.6,0-9.7c0.6-1.4,1.4-2.8,2.5-3.9
			c1.1-1.1,2.4-2,3.8-2.6c1.6-0.6,3.3-0.9,4.9-0.9c1.7,0,3.4,0.3,4.9,0.9c1.4,0.6,2.7,1.5,3.8,2.6c1.1,1.1,1.9,2.4,2.5,3.9
			C533.4,344,533.7,345.7,533.7,347.3z M529.1,347.3c0-1.2-0.2-2.4-0.5-3.5c-0.3-1-0.8-1.9-1.5-2.7c-0.7-0.7-1.5-1.3-2.4-1.7
			c-2-0.8-4.3-0.8-6.3,0c-0.9,0.4-1.7,0.9-2.4,1.7c-0.7,0.8-1.2,1.7-1.5,2.7c-0.7,2.3-0.7,4.8,0,7.1c0.3,1,0.8,1.9,1.5,2.6
			c0.7,0.7,1.5,1.3,2.4,1.7c2,0.8,4.3,0.8,6.3,0c0.9-0.4,1.7-0.9,2.4-1.7c0.7-0.8,1.2-1.7,1.5-2.6
			C529,349.7,529.2,348.5,529.1,347.3L529.1,347.3z"/>
		<path class="st17" d="M550.1,349.9v9.3h-4.4v-23.9h7.3c1.4,0,2.8,0.1,4.2,0.5c1,0.3,2,0.8,2.9,1.4c0.7,0.6,1.3,1.3,1.6,2.2
			c0.6,1.6,0.7,3.4,0.2,5.1c-0.2,0.7-0.6,1.4-1,2c-0.5,0.6-1,1.1-1.7,1.5c-0.7,0.5-1.4,0.8-2.2,1.1c0.6,0.3,1.1,0.8,1.5,1.4l6,8.8
			h-4c-0.3,0-0.7-0.1-1-0.2c-0.3-0.2-0.5-0.4-0.7-0.7l-5-7.7c-0.2-0.3-0.4-0.5-0.6-0.6c-0.3-0.1-0.7-0.2-1-0.2L550.1,349.9
			L550.1,349.9z M550.1,346.8h2.8c0.7,0,1.5-0.1,2.2-0.3c0.6-0.2,1.1-0.5,1.5-0.9c0.4-0.4,0.7-0.8,0.9-1.3c0.2-0.5,0.3-1.1,0.3-1.7
			c0.1-1.1-0.4-2.1-1.2-2.8c-1.1-0.7-2.4-1.1-3.7-1h-2.8L550.1,346.8L550.1,346.8z"/>
		<path class="st17" d="M590.6,335.4v3.5H580v6.6h8.4v3.4H580v6.8h10.6v3.5h-15.1v-23.9H590.6z"/>
		<path class="st17" d="M605.6,335.4c0.1,0,0.2,0,0.4,0.1c0.1,0.1,0.2,0.1,0.3,0.2c0.1,0.1,0.2,0.2,0.3,0.4l12.5,16
			c0-0.4-0.1-0.7-0.1-1.1c0-0.4,0-0.7,0-1v-14.6h3.9v23.9h-2.3c-0.3,0-0.6,0-0.9-0.2c-0.3-0.1-0.5-0.3-0.7-0.6l-12.6-15.9
			c0,0.4,0,0.7,0.1,1.1c0.1,0.4,0.1,0.7,0,0.9v14.7h-3.9v-24h2.3L605.6,335.4z"/>
		<path class="st17" d="M648.8,339.7c-0.1,0.2-0.2,0.4-0.4,0.5c-0.2,0.1-0.4,0.2-0.6,0.2c-0.3,0-0.5-0.1-0.7-0.3l-1-0.6
			c-0.4-0.2-0.9-0.4-1.3-0.6c-0.6-0.2-1.2-0.3-1.8-0.3c-0.5,0-1.1,0.1-1.6,0.2c-0.4,0.1-0.8,0.3-1.2,0.6c-0.3,0.3-0.6,0.6-0.7,0.9
			c-0.2,0.4-0.2,0.8-0.2,1.2c0,0.5,0.2,1,0.5,1.4c0.3,0.4,0.8,0.7,1.2,1c0.6,0.3,1.2,0.5,1.8,0.7l2,0.7c0.7,0.2,1.4,0.5,2,0.8
			c0.6,0.3,1.2,0.7,1.8,1.2c0.5,0.5,1,1.1,1.2,1.8c0.3,0.8,0.5,1.7,0.5,2.5c0,1-0.2,2.1-0.6,3c-0.4,0.9-0.9,1.8-1.6,2.5
			c-0.7,0.7-1.6,1.3-2.6,1.7c-1.1,0.4-2.3,0.6-3.5,0.6c-0.7,0-1.5-0.1-2.2-0.2c-0.7-0.1-1.4-0.4-2.1-0.6c-0.7-0.3-1.3-0.6-1.9-1
			c-0.6-0.4-1.1-0.8-1.6-1.3l1.3-2.1c0.1-0.2,0.3-0.3,0.4-0.4c0.2-0.1,0.4-0.2,0.6-0.2c0.3,0,0.6,0.1,0.9,0.3
			c0.3,0.2,0.7,0.5,1.1,0.7c0.5,0.3,1,0.6,1.5,0.7c0.7,0.2,1.4,0.4,2.1,0.3c1.1,0.1,2.1-0.3,2.9-0.9c0.7-0.7,1.1-1.6,1-2.6
			c0-0.6-0.1-1.1-0.5-1.5c-0.3-0.4-0.8-0.8-1.2-1c-0.6-0.3-1.2-0.5-1.8-0.7c-0.7-0.2-1.3-0.4-2-0.6c-0.7-0.2-1.4-0.5-2-0.8
			c-0.7-0.3-1.3-0.7-1.8-1.2c-0.5-0.5-1-1.2-1.2-1.9c-0.3-0.9-0.5-1.8-0.5-2.8c0-1.8,0.7-3.5,2-4.7c0.7-0.7,1.5-1.2,2.5-1.5
			c1.1-0.4,2.2-0.6,3.3-0.6c1.3,0,2.7,0.2,3.9,0.7c1.1,0.4,2.2,1,3,1.9L648.8,339.7z"/>
		<path class="st17" d="M667.1,359.3h-4.5v-23.9h4.5V359.3z"/>
		<path class="st17" d="M697.2,353.7c0.2,0,0.5,0.1,0.6,0.3l1.8,1.9c-1,1.2-2.2,2.1-3.6,2.8c-1.6,0.7-3.4,1-5.1,1
			c-1.6,0-3.3-0.3-4.8-0.9c-1.4-0.6-2.6-1.4-3.6-2.5c-1-1.1-1.8-2.4-2.3-3.9c-0.5-1.6-0.8-3.2-0.8-4.9c0-1.7,0.3-3.4,0.9-4.9
			c1.1-2.9,3.5-5.3,6.4-6.4c1.6-0.6,3.3-0.9,5-0.9c1.6,0,3.2,0.3,4.7,0.8c1.3,0.5,2.4,1.3,3.4,2.2l-1.5,2.1
			c-0.1,0.1-0.2,0.3-0.3,0.4c-0.2,0.1-0.4,0.2-0.6,0.1c-0.3,0-0.6-0.1-0.8-0.3c-0.3-0.2-0.7-0.4-1-0.6c-0.5-0.3-1-0.5-1.5-0.6
			c-0.8-0.2-1.6-0.3-2.4-0.3c-1.1,0-2.1,0.2-3.1,0.6c-0.9,0.4-1.7,1-2.4,1.7c-0.7,0.8-1.2,1.7-1.6,2.7c-0.4,1.1-0.6,2.3-0.6,3.5
			c0,1.2,0.2,2.4,0.6,3.6c0.3,1,0.9,1.9,1.5,2.6c0.6,0.7,1.4,1.3,2.3,1.6c0.9,0.4,1.9,0.6,2.8,0.6c0.5,0,1.1,0,1.6-0.1
			c0.5-0.1,0.9-0.2,1.4-0.3c0.4-0.1,0.8-0.3,1.2-0.6c0.4-0.2,0.8-0.5,1.1-0.8c0.1-0.1,0.2-0.2,0.4-0.2
			C696.9,353.7,697,353.6,697.2,353.7z"/>
		<path class="st17" d="M724,339.7c-0.1,0.2-0.2,0.4-0.4,0.5c-0.2,0.1-0.4,0.2-0.6,0.2c-0.3,0-0.5-0.1-0.7-0.3l-1-0.6
			c-0.4-0.2-0.9-0.4-1.3-0.6c-0.6-0.2-1.2-0.3-1.8-0.3c-0.5,0-1.1,0.1-1.6,0.2c-0.4,0.1-0.8,0.3-1.2,0.6c-0.3,0.3-0.6,0.6-0.7,0.9
			c-0.2,0.4-0.2,0.8-0.2,1.2c0,0.5,0.2,1,0.5,1.4c0.3,0.4,0.8,0.7,1.2,1c0.6,0.3,1.2,0.5,1.8,0.7l2,0.7c0.7,0.2,1.4,0.5,2,0.8
			c0.6,0.3,1.2,0.7,1.8,1.2c0.5,0.5,1,1.1,1.2,1.8c0.3,0.8,0.5,1.7,0.5,2.5c0,1-0.2,2.1-0.6,3c-0.4,0.9-0.9,1.8-1.6,2.5
			c-0.7,0.7-1.6,1.3-2.6,1.7c-1.1,0.4-2.3,0.6-3.5,0.6c-0.7,0-1.5-0.1-2.2-0.2c-0.7-0.1-1.4-0.4-2.1-0.6c-0.7-0.3-1.3-0.6-1.9-1
			c-0.6-0.4-1.1-0.8-1.6-1.3l1.3-2.1c0.1-0.2,0.3-0.3,0.4-0.4c0.2-0.1,0.4-0.2,0.6-0.2c0.3,0,0.6,0.1,0.9,0.3
			c0.3,0.2,0.7,0.5,1.1,0.7c0.5,0.3,1,0.6,1.5,0.7c0.7,0.2,1.4,0.4,2.1,0.3c1.1,0.1,2.1-0.3,2.9-0.9c0.7-0.7,1.1-1.6,1-2.6
			c0-0.6-0.1-1.1-0.5-1.5c-0.3-0.4-0.8-0.8-1.2-1c-0.6-0.3-1.2-0.5-1.8-0.7c-0.7-0.2-1.3-0.4-2-0.6c-0.7-0.2-1.4-0.5-2-0.8
			c-0.7-0.3-1.3-0.7-1.8-1.2c-0.5-0.5-1-1.2-1.2-1.9c-0.3-0.9-0.5-1.8-0.5-2.8c0-1.8,0.7-3.5,2-4.7c0.7-0.7,1.5-1.2,2.5-1.5
			c1.1-0.4,2.2-0.6,3.3-0.6c1.3,0,2.7,0.2,3.9,0.7c1.1,0.4,2.2,1,3,1.9L724,339.7z"/>
	</g>
	<g>
		<path class="st17" d="M350.9,321.8h-10.1c-1,0-2-0.3-2.8-0.8c-0.7-0.5-1.3-1.3-1.6-2.1l-5.2-14.3h-29.1l-5.2,14.3
			c-0.3,0.8-0.8,1.5-1.5,2c-0.8,0.6-1.8,1-2.8,0.9h-10.1l27.6-70.1h13.4L350.9,321.8z M305.5,295.4h22.4l-8.5-23.3
			c-0.4-1-0.8-2.3-1.3-3.7c-0.5-1.4-0.9-2.9-1.4-4.6c-0.5,1.6-0.9,3.2-1.3,4.6s-0.9,2.7-1.3,3.7L305.5,295.4z"/>
		<path class="st17" d="M383.5,311.3c2.3,0,4.6-0.4,6.8-1.3c1.9-0.8,3.6-2,5-3.6c1.4-1.6,2.5-3.5,3.2-5.5c0.8-2.3,1.1-4.8,1.1-7.3
			v-42h13.1v42c0,3.9-0.6,7.9-2,11.6c-1.3,3.4-3.2,6.6-5.8,9.2c-2.6,2.6-5.7,4.7-9.2,6c-7.8,2.9-16.4,2.9-24.3,0
			c-7-2.7-12.4-8.2-15-15.2c-1.4-3.7-2.1-7.6-2-11.6v-42h13.1v42c0,2.5,0.3,4.9,1.1,7.3c0.7,2,1.7,3.9,3.1,5.5
			c1.4,1.6,3.1,2.8,5,3.6C378.9,310.9,381.2,311.3,383.5,311.3z"/>
		<path class="st17" d="M475,251.7v10.7h-21.1v59.4h-13v-59.4h-21.2v-10.7H475z"/>
		<path class="st17" d="M546.6,286.7c0.1,4.9-0.8,9.8-2.6,14.3c-1.6,4.2-4.1,8.1-7.2,11.4c-3.2,3.2-7,5.8-11.2,7.5
			c-9.3,3.6-19.7,3.6-29,0c-4.2-1.7-8.1-4.2-11.3-7.5c-3.2-3.3-5.6-7.1-7.3-11.4c-1.8-4.6-2.6-9.4-2.6-14.3
			c-0.1-4.9,0.8-9.8,2.6-14.3c1.6-4.2,4.1-8.1,7.3-11.4c3.2-3.3,7-5.8,11.3-7.5c4.6-1.8,9.6-2.8,14.5-2.7c5-0.1,9.9,0.9,14.5,2.7
			c4.2,1.7,8,4.3,11.2,7.5c3.2,3.3,5.6,7.1,7.2,11.4C545.7,277,546.6,281.8,546.6,286.7z M533.2,286.7c0-3.5-0.5-7-1.5-10.4
			c-0.9-2.9-2.4-5.5-4.4-7.8c-1.9-2.1-4.3-3.8-7-4.9c-6-2.3-12.5-2.3-18.5,0c-2.7,1.1-5.1,2.8-7,4.9c-2,2.3-3.5,4.9-4.4,7.8
			c-1.1,3.3-1.6,6.8-1.6,10.4c-0.1,3.5,0.5,7,1.6,10.4c0.9,2.8,2.4,5.5,4.4,7.7c1.9,2.2,4.3,3.8,7,4.9c6,2.3,12.5,2.3,18.5,0
			c2.7-1.1,5-2.7,7-4.9c2-2.2,3.5-4.9,4.4-7.7C532.7,293.8,533.2,290.3,533.2,286.7L533.2,286.7z"/>
		<path class="st17" d="M570,297.1v24.7H557v-70.1h22.8c4.1-0.1,8.2,0.5,12.1,1.7c3.1,0.9,6,2.5,8.5,4.6c2.2,1.9,3.9,4.4,4.9,7.1
			c1.1,2.9,1.6,5.9,1.6,9c0,3.2-0.5,6.4-1.7,9.3c-1.1,2.8-2.9,5.3-5.1,7.3c-2.5,2.2-5.4,3.8-8.5,4.8c-3.9,1.2-7.9,1.8-11.9,1.7
			L570,297.1L570,297.1z M570,286.9h9.8c2.1,0,4.2-0.3,6.3-0.9c1.6-0.5,3.1-1.4,4.4-2.6c1.2-1.1,2.1-2.5,2.6-4.1
			c0.6-1.7,0.9-3.5,0.9-5.4c0-1.7-0.3-3.4-0.9-5.1c-0.6-1.5-1.5-2.8-2.6-3.9c-1.3-1.1-2.8-2-4.4-2.4c-2-0.6-4.1-0.9-6.3-0.8H570
			L570,286.9L570,286.9z"/>
		<path class="st17" d="M654.5,264.4c-0.3,0.6-0.7,1.1-1.2,1.5c-0.5,0.3-1.1,0.5-1.7,0.4c-0.8,0-1.6-0.3-2.2-0.7
			c-0.8-0.5-1.8-1.1-2.9-1.7c-1.2-0.7-2.5-1.2-3.9-1.7c-1.7-0.5-3.4-0.8-5.2-0.7c-1.6,0-3.2,0.2-4.7,0.7c-1.2,0.4-2.4,1-3.4,1.8
			c-0.9,0.7-1.6,1.7-2,2.8c-0.5,1.1-0.7,2.3-0.7,3.6c-0.1,1.5,0.4,3,1.4,4.2c1,1.2,2.3,2.1,3.7,2.8c1.7,0.8,3.4,1.5,5.2,2.1
			c1.9,0.6,3.9,1.3,5.9,2c2,0.7,4,1.5,5.9,2.4c1.9,0.9,3.6,2.1,5.2,3.5c1.6,1.5,2.8,3.2,3.7,5.2c1,2.3,1.5,4.9,1.4,7.4
			c0,3-0.5,6.1-1.6,8.9c-1.1,2.7-2.7,5.2-4.8,7.2c-2.2,2.1-4.8,3.8-7.6,4.9c-3.3,1.2-6.8,1.8-10.3,1.8c-2.2,0-4.4-0.2-6.6-0.7
			c-2.1-0.4-4.2-1-6.2-1.9c-1.9-0.8-3.8-1.8-5.6-2.9c-1.7-1.1-3.2-2.4-4.6-3.8l3.8-6.3c0.4-0.4,0.8-0.8,1.3-1.1
			c0.5-0.3,1.1-0.5,1.7-0.5c1,0.1,1.9,0.4,2.6,1c0.9,0.7,2,1.4,3.3,2.2c1.4,0.9,2.9,1.6,4.5,2.2c2,0.7,4.1,1,6.2,1
			c3.7,0,6.6-0.9,8.6-2.6c2.1-1.9,3.2-4.7,3.1-7.6c0.1-1.6-0.4-3.2-1.4-4.5c-1-1.2-2.2-2.2-3.7-2.9c-1.6-0.8-3.4-1.5-5.2-2
			c-1.9-0.6-3.9-1.2-5.9-1.8c-2-0.7-4-1.4-5.9-2.3c-1.9-0.9-3.7-2.1-5.2-3.5c-1.6-1.6-2.8-3.4-3.7-5.5c-1-2.6-1.4-5.3-1.4-8
			c0-5.3,2.2-10.3,6-13.9c2.1-2,4.5-3.5,7.2-4.5c3.1-1.2,6.4-1.8,9.7-1.7c3.9,0,7.8,0.6,11.4,1.9c3.3,1.2,6.4,3,8.9,5.4L654.5,264.4
			z"/>
		<path class="st17" d="M699.8,294.6v27.3h-13.1v-27.3l-25.6-42.9h11.5c1-0.1,1.9,0.2,2.7,0.8c0.7,0.6,1.3,1.3,1.7,2.1l12.9,23.4
			c0.7,1.4,1.4,2.7,1.9,4c0.6,1.2,1.1,2.5,1.5,3.7c0.4-1.2,0.9-2.5,1.4-3.7c0.5-1.2,1.2-2.6,1.9-3.9l12.8-23.4
			c0.4-0.8,0.9-1.4,1.6-2c0.8-0.6,1.7-1,2.7-0.9h11.5L699.8,294.6z"/>
	</g>
</g>
</svg>
